# xmcd
#
# Track frame offsets: 
#        150
#        5678
#        37747
#        60384
#        86006
#        100562
#        116281
#        131458
#        148369
#        155327
#        161274
#        176332
#        210665
#
# Disc length: 3218 seconds
#
# Revision: 0
# Processed by: cddbd v1.5.2PL0 Copyright (c) Steve Scherf et al.
# Submitted via: ExactAudioCopy v0.99pb3
#
DISCID=990c900d
DTITLE=James Booker - Manchester 77
DYEAR=1977
DGENRE=R&B
TTITLE0=Let the good times roll
TTITLE1=Blues minuet
TTITLE2=Junko partner
TTITLE3=Black night
TTITLE4=Tipitina
TTITLE5=Come rain or shine
TTITLE6=Pixie
TTITLE7=We've just begun
TTITLE8=Send me some loving
TTITLE9=Rip it up and Long tall Sally
TTITLE10=Let them talk
TTITLE11=Hound dog and Hambone
TTITLE12=Every day I have the blue
EXTD=
EXTT0=
EXTT1=
EXTT2=
EXTT3=
EXTT4=
EXTT5=
EXTT6=
EXTT7=
EXTT8=
EXTT9=
EXTT10=
EXTT11=
EXTT12=
PLAYORDER=
